<svg xmlns="http://www.w3.org/2000/svg" id="uuid-5da1dbef-d3b3-4d90-acf0-64e7942700f6" width="78.67" height="78.67" viewBox="0 0 78.67 78.67"><circle cx="39.33" cy="39.33" r="38.65" fill="#fff"></circle><g><path d="m32.83,45.62c-.22-.22-.46-.41-.71-.58l-9.41-8.95c-1.83-1.83-4.79-1.83-6.62,0-1.83,1.83-1.83,4.79,0,6.62l9.93,9.93h.01c.71.64,1.57,1.04,2.47,1.18,1.52.29,3.16-.14,4.34-1.32,1.9-1.9,1.9-4.97,0-6.86Z" fill="#0d5ecf"></path><circle cx="59.27" cy="39.33" r="4.68" fill="#ffbd49"></circle><circle cx="29.49" cy="29.41" r="4.68" fill="#ffbd49"></circle><path d="m52.65,26.1c-1.83-1.83-4.79-1.83-6.62,0l-19.86,19.86h.01c-.04.05-.09.08-.13.12-1.83,1.83-1.83,4.79,0,6.62,1.83,1.83,4.79,1.83,6.62,0,.04-.04.07-.09.11-.13h.01s10.06-10.05,10.06-10.05c.03-.03.06-.05.09-.08s.05-.06.08-.09l9.62-9.62c1.83-1.83,1.83-4.79,0-6.62Z" fill="#0d5ecf"></path><circle cx="49.34" cy="49.26" r="4.68" fill="#ffbd49"></circle><g><circle cx="39.41" cy="19.48" r="4.68" fill="#36d5a1"></circle><circle cx="39.41" cy="59.19" r="4.68" fill="#36d5a1"></circle></g></g></svg>